<?xml version="1.0" encoding="utf-8"?>
<!--Designed by Vexels.com - 2017 All Rights Reserved - https://vexels.com/terms-and-conditions/-->
<!DOCTYPE svg PUBLIC "-//W3C//DTD SVG 1.1//EN" "http://www.w3.org/Graphics/SVG/1.1/DTD/svg11.dtd">
<svg version="1.1" id="Capa_1" xmlns="http://www.w3.org/2000/svg" xmlns:xlink="http://www.w3.org/1999/xlink" x="0px" y="0px"
	 width="1200px" height="1200px" viewBox="0 0 1200 1200" enable-background="new 0 0 1200 1200" xml:space="preserve">
<g>
	<g>
		<g>
			<path fill="#0093A4" d="M337.792,674.226l-201.813-3.196c-7.613-0.118-13.878,5.949-14.002,13.565l-3.192,201.808
				c-0.119,7.604,5.946,13.872,13.562,13.996l201.809,3.197c7.609,0.122,13.872-5.952,14.001-13.562l3.195-201.81
				C351.472,680.61,345.394,674.349,337.792,674.226z"/>
		</g>
		<g>
			<path fill="#1E1E1E" d="M360.293,668.139c0,4.151-3.365,7.517-7.514,7.517h-236.49c-4.151,0-7.513-3.365-7.513-7.517l0,0
				c0-4.151,3.361-7.51,7.513-7.51h236.49C356.928,660.629,360.293,663.987,360.293,668.139L360.293,668.139z"/>
		</g>
		<g>
			<path fill="#1E1E1E" d="M360.293,896.083c0,4.147-3.365,7.513-7.514,7.513h-236.49c-4.151,0-7.513-3.365-7.513-7.513l0,0
				c0-4.151,3.361-7.517,7.513-7.517h236.49C356.928,888.566,360.293,891.932,360.293,896.083L360.293,896.083z"/>
		</g>
		<g>
			<g>
				<g>
					<path fill="#1E1E1E" d="M828.104,994.325c-3.198,0-5.787-2.594-5.787-5.785V203.952c0-3.194,2.589-5.787,5.787-5.787
						c3.194,0,5.784,2.593,5.784,5.787V988.54C833.889,991.731,831.299,994.325,828.104,994.325z"/>
				</g>
				<g>
					<path fill="#1E1E1E" d="M872.983,994.325h-89.762c-3.195,0-5.786-2.594-5.786-5.785c0-3.198,2.591-5.788,5.786-5.788h89.762
						c3.197,0,5.787,2.59,5.787,5.788C878.771,991.731,876.181,994.325,872.983,994.325z"/>
				</g>
			</g>
			<g>
				<g>
					<path fill="#1E1E1E" d="M216.418,994.325c-3.196,0-5.787-2.594-5.787-5.785V338.841c0-3.194,2.591-5.786,5.787-5.786
						s5.786,2.592,5.786,5.786V988.54C222.204,991.731,219.614,994.325,216.418,994.325z"/>
				</g>
				<g>
					<path fill="#1E1E1E" d="M261.299,994.325h-89.763c-3.197,0-5.787-2.594-5.787-5.785c0-3.198,2.59-5.788,5.787-5.788h89.763
						c3.195,0,5.786,2.59,5.786,5.788C267.085,991.731,264.494,994.325,261.299,994.325z"/>
				</g>
			</g>
		</g>
		<g>
			<path fill="#1E1E1E" d="M216.412,344.632c-0.832,0-1.68-0.184-2.483-0.565c-2.885-1.376-4.108-4.824-2.735-7.712l18.653-39.166
				c1.371-2.888,4.822-4.107,7.712-2.738c2.884,1.376,4.108,4.829,2.734,7.711l-18.652,39.17
				C220.649,343.412,218.576,344.632,216.412,344.632z"/>
		</g>
		<g>
			<g>
				<path fill="#009FA4" d="M411.357,496.507l-178.842-93.555c-6.749-3.527-15.072-0.923-18.604,5.824l-93.555,178.841
					c-3.524,6.74-0.921,15.061,5.822,18.598l178.843,93.559c6.74,3.526,15.064,0.92,18.6-5.821l93.555-178.843
					C420.708,508.362,418.095,500.034,411.357,496.507z"/>
			</g>
			<g>
				<path fill="#009FA4" d="M924.17,587.617l-93.558-178.841c-3.535-6.747-11.856-9.352-18.603-5.824l-178.845,93.555
					c-6.738,3.527-9.351,11.855-5.816,18.603l93.557,178.843c3.529,6.741,11.852,9.348,18.592,5.821l178.844-93.559
					C925.087,602.678,927.694,594.357,924.17,587.617z"/>
			</g>
		</g>
		<g>
			<g>
				<path fill="#1E1E1E" d="M441.396,505.375c-1.881,3.697-6.406,5.17-10.104,3.288L220.524,401.393
					c-3.696-1.878-5.17-6.404-3.29-10.1l0,0c1.886-3.701,6.408-5.172,10.106-3.291l210.769,107.271
					C441.807,497.153,443.279,501.674,441.396,505.375L441.396,505.375z"/>
			</g>
			<g>
				<path fill="#1E1E1E" d="M333.754,708.673c-1.885,3.696-6.408,5.172-10.105,3.288L112.881,604.694
					c-3.698-1.883-5.171-6.406-3.289-10.104l0,0c1.882-3.702,6.406-5.17,10.104-3.288l210.766,107.267
					C334.16,700.451,335.635,704.972,333.754,708.673L333.754,708.673z"/>
			</g>
		</g>
		<g>
			<g>
				<path fill="#1E1E1E" d="M602.375,505.375c1.885,3.697,6.407,5.17,10.105,3.288l210.77-107.271
					c3.694-1.878,5.168-6.404,3.286-10.1l0,0c-1.883-3.701-6.408-5.172-10.105-3.291L605.666,495.272
					C601.966,497.153,600.494,501.674,602.375,505.375L602.375,505.375z"/>
			</g>
			<g>
				<path fill="#1E1E1E" d="M710.021,708.673c1.884,3.696,6.405,5.172,10.104,3.288l210.769-107.267
					c3.695-1.883,5.172-6.406,3.288-10.104l0,0c-1.882-3.702-6.405-5.17-10.105-3.288L713.309,698.569
					C709.611,700.451,708.138,704.972,710.021,708.673L710.021,708.673z"/>
			</g>
		</g>
		<g>
			<g>
				<path fill="#1E1E1E" d="M693.283,994.325c-1.48,0-2.961-0.566-4.092-1.697l-71.475-71.48c-2.261-2.258-2.261-5.92,0-8.181
					c2.258-2.261,5.922-2.261,8.181,0l71.478,71.477c2.26,2.266,2.26,5.921,0,8.185
					C696.244,993.759,694.764,994.325,693.283,994.325z"/>
			</g>
			<g>
				<path fill="#1E1E1E" d="M351.238,994.325c-1.479,0-2.961-0.566-4.091-1.697c-2.262-2.264-2.262-5.919,0-8.185l71.481-71.477
					c2.26-2.261,5.922-2.261,8.181,0c2.262,2.261,2.262,5.923,0,8.181l-71.48,71.48
					C354.199,993.759,352.719,994.325,351.238,994.325z"/>
			</g>
		</g>
		<g>
			<path fill="#1E1E1E" d="M1024.266,994.325c-3.196,0-5.786-2.594-5.786-5.785V283.734c0-3.193,2.59-5.785,5.786-5.785
				c3.195,0,5.785,2.592,5.785,5.785V988.54C1030.051,991.731,1027.461,994.325,1024.266,994.325z"/>
		</g>
		<g>
			<path fill="#1E1E1E" d="M1069.146,994.325h-89.761c-3.195,0-5.787-2.594-5.787-5.785c0-3.198,2.592-5.788,5.787-5.788h89.761
				c3.197,0,5.787,2.59,5.787,5.788C1074.933,991.731,1072.343,994.325,1069.146,994.325z"/>
		</g>
		<g>
			<path fill="#1E1E1E" d="M1042.11,328.68h-35.69c-3.196,0-5.786-2.592-5.786-5.789c0-3.196,2.59-5.787,5.786-5.787h35.69
				c3.196,0,5.786,2.591,5.786,5.787C1047.896,326.088,1045.307,328.68,1042.11,328.68z"/>
		</g>
		<g>
			<path fill="#1E1E1E" d="M1130.654,994.328c-2.261,0-4.402-1.334-5.337-3.544l-106.386-252.67
				c-1.237-2.943,0.144-6.337,3.089-7.572c2.944-1.252,6.336,0.14,7.578,3.086l106.384,252.666c1.243,2.943-0.14,6.334-3.086,7.573
				C1132.165,994.177,1131.403,994.328,1130.654,994.328z"/>
		</g>
		<g>
			<path fill="#1E1E1E" d="M917.878,994.328c-0.749,0-1.51-0.151-2.243-0.461c-2.944-1.239-4.327-4.63-3.087-7.573l106.384-252.666
				c1.239-2.946,4.634-4.338,7.576-3.086c2.946,1.235,4.332,4.629,3.091,7.572l-106.386,252.67
				C922.281,992.994,920.136,994.328,917.878,994.328z"/>
		</g>
		<g>
			<g>
				<g>
					<path fill="#EDD039" d="M1140.743,372.817H907.79c-5.112,0-9.26-4.146-9.26-9.256c0-5.113,4.147-9.263,9.26-9.263h232.953
						c5.11,0,9.257,4.149,9.257,9.263C1150,368.672,1145.854,372.817,1140.743,372.817z"/>
				</g>
			</g>
			<g>
				<g>
					<path fill="#EDD039" d="M997.358,361.652c0-14.862,12.046-26.909,26.907-26.909c14.863,0,26.91,12.047,26.91,26.909H997.358z"
						/>
				</g>
			</g>
		</g>
		<g>
			<g>
				<g>
					<path fill="#E8BA00" d="M1140.743,385.534H907.79c-4.594,0-8.315-3.729-8.315-8.32c0-4.596,3.722-8.315,8.315-8.315h232.953
						c4.592,0,8.314,3.72,8.314,8.315C1149.058,381.805,1145.335,385.534,1140.743,385.534z"/>
				</g>
			</g>
			<g>
				<g>
					<path fill="#E8BA00" d="M1051.176,379.119c0,14.863-12.047,26.908-26.908,26.908c-14.863,0-26.909-12.045-26.909-26.908
						H1051.176z"/>
				</g>
			</g>
		</g>
		<g>
			<path fill="#40B7BA" d="M788.224,735.87c0,146.891-119.074,265.965-265.964,265.965c-146.888,0-265.961-119.074-265.961-265.965
				c0-146.887,119.073-265.958,265.961-265.958C669.149,469.912,788.224,588.983,788.224,735.87z"/>
		</g>
		<g>
			<path fill="#FFFFFF" d="M758.134,735.87c0,130.273-105.601,235.876-235.874,235.876c-130.27,0-235.872-105.603-235.872-235.876
				c0-130.271,105.603-235.876,235.872-235.876C652.533,499.994,758.134,605.6,758.134,735.87z"/>
			<path fill="#1E1E1E" d="M522.26,977.532c-133.247,0-241.657-108.411-241.657-241.662s108.41-241.66,241.657-241.66
				c133.254,0,241.661,108.409,241.661,241.66S655.514,977.532,522.26,977.532z M522.26,505.784
				c-126.868,0-230.085,103.215-230.085,230.086c0,126.87,103.217,230.092,230.085,230.092
				c126.871,0,230.089-103.222,230.089-230.092C752.349,608.999,649.131,505.784,522.26,505.784z"/>
		</g>
		<g>
			<g>
				<g>
					<path fill="#EDD039" d="M371.167,402.635L56.852,317.876c-4.939-1.332-7.861-6.412-6.53-11.352
						c1.329-4.934,6.413-7.861,11.352-6.529l314.316,84.763c4.937,1.329,7.858,6.41,6.527,11.347
						C381.186,401.042,376.104,403.964,371.167,402.635z"/>
				</g>
			</g>
			<g>
				<g>
					<path fill="#EDD039" d="M169.09,348.143c6.167-22.862,31.273-35.965,56.078-29.275c24.81,6.689,39.926,30.639,33.76,53.499
						L169.09,348.143z"/>
				</g>
			</g>
		</g>
		<g>
			<g>
				<g>
					<path fill="#EDD039" d="M686.835,287.798L973,261.429c4.495-0.412,7.806-4.392,7.388-8.884
						c-0.411-4.493-4.393-7.804-8.888-7.392l-286.167,26.368c-4.497,0.418-7.8,4.395-7.388,8.892
						C678.36,284.906,682.339,288.216,686.835,287.798z"/>
				</g>
			</g>
			<g>
				<g>
					<path fill="#EDD039" d="M870.813,270.848c-1.918-20.815-21.783-35.998-44.366-33.911c-22.588,2.08-39.347,20.634-37.428,41.446
						L870.813,270.848z"/>
				</g>
			</g>
		</g>
	</g>
	<path fill="#1E1E1E" d="M557.905,854.811c0,27.347-22.165,49.517-49.513,49.517c-27.345,0-49.513-22.17-49.513-49.517
		c0-27.343,22.168-49.511,49.513-49.511C535.74,805.3,557.905,827.468,557.905,854.811z"/>
</g>
</svg>
